<svg xmlns="http://www.w3.org/2000/svg" xmlns:xlink="http://www.w3.org/1999/xlink" width="174.31" height="42.718" viewBox="0 0 174.31 42.718">
  <defs>
    <clipPath id="clip-path">
      <rect id="Rectangle_5" data-name="Rectangle 5" width="174.31" height="42.718" fill="#fff"/>
    </clipPath>
  </defs>
  <g id="Group_4" data-name="Group 4" clip-path="url(#clip-path)">
    <path id="Path_1" data-name="Path 1" d="M492.616,0c-2.968,1.557-8.269,4.8-10.4,6.178a8.459,8.459,0,0,0-3.741,4.906l-2.247,5.9a23.386,23.386,0,0,1,6.816-5.789s5.295-3.135,8.63-5.021Z" transform="translate(-318.306)" fill="#fff"/>
    <path id="Path_2" data-name="Path 2" d="M468.322,55.874c-3.612,2.494-9.074,6.234-13.985,9.469,0,0-3.893,2.7-6.456,2.651A5.5,5.5,0,0,1,444.1,66.57l1.173,2.48s1.611,3.269,4.207,3.388c0,0,2.311.379,8.284-3.318,0,0,5.195-3.5,9.586-6.883Z" transform="translate(-296.834 -37.346)" fill="#fff"/>
    <path id="Path_3" data-name="Path 3" d="M388.649,70.02a4.851,4.851,0,0,0-5.689-2.093,40.807,40.807,0,0,0-13.784,8.963s-1.4,1.322-3.165,3.075l-1.22,8.007c2.057-2.248,4.944-5.332,6.439-6.6,0,0,7.881-7,11.82-8.379a7.318,7.318,0,0,1,8.042,1.486s-1.262-2.584-2.443-4.46" transform="translate(-243.823 -45.254)" fill="#fff"/>
    <path id="Path_4" data-name="Path 4" d="M388.785,48.18s-1.88-3.336-7.016-1.784c0,0-3.921,1.286-9.889,6.616L370.74,60.5c.442-.416.711-.664.711-.664s6.743-6.535,11.736-8.686c0,0,4.977-2.6,8.767,2.772,0,0-1.988-3.87-3.169-5.746" transform="translate(-247.798 -30.736)" fill="#fff"/>
    <path id="Path_5" data-name="Path 5" d="M388.866,28.483a5.792,5.792,0,0,0-6.357-2.307,16.275,16.275,0,0,0-5.25,2.5l-.972,6.384a30.2,30.2,0,0,1,7.576-4.451s3.991-1.681,7.5,2.3c0,0-1.142-2.27-2.5-4.428" transform="translate(-251.506 -17.374)" fill="#fff"/>
    <path id="Path_6" data-name="Path 6" d="M488.3,27.341c-3.246,2.122-8.023,5.241-10.525,6.856a8.826,8.826,0,0,0-4.1,5.389l-1.838,5.327a54.973,54.973,0,0,1,5.938-5.068c4.678-3.407,7.216-5,9.625-6.595Z" transform="translate(-315.369 -18.274)" fill="#fff"/>
    <path id="Path_7" data-name="Path 7" d="M15.209,34.446a9.59,9.59,0,0,0-9.178,7.387L0,65.72l30.561-.04,1.624-6.432L7.7,59.28,9.207,53.3,33.7,53.263l1.624-6.432-24.494.032.259-1.019A6.481,6.481,0,0,1,17.3,40.873l19.529-.026,1.624-6.432Z" transform="translate(0 -23.003)" fill="#fff"/>
    <path id="Path_8" data-name="Path 8" d="M163.214,34.252a13.636,13.636,0,0,0-11.022,5.657L139.447,57.617,135.4,34.289l-7.99.011,5.422,31.247,9.718-.013L165.063,34.25Z" transform="translate(-85.158 -22.892)" fill="#fff"/>
    <path id="Path_9" data-name="Path 9" d="M257.071,38.589a12.108,12.108,0,0,0-9.888-4.4c-8.88.012-17.924,7.126-20.161,15.858-1.074,4.189-.42,8.1,1.84,11.006a12.109,12.109,0,0,0,9.888,4.4c5.834-.008,12-3.148,16.105-8.11l-3.842,0a21.556,21.556,0,0,0-6.835,1.239,10.785,10.785,0,0,1-3.395.573c-3.8,0-6.71-2.216-7.413-5.658l-.2-.98,24.725-.032a18.226,18.226,0,0,0,1.013-2.894c1.074-4.189.421-8.1-1.838-11m-21.763,8.552,1.007-1.317a12.153,12.153,0,0,1,9.25-4.728c3.579,0,6.324,1.97,6.992,5.031l.217.992Z" transform="translate(-151.402 -22.849)" fill="#fff"/>
  </g>
</svg>
