<?xml version="1.0" encoding="UTF-8"?>
<svg id="Layer_1" data-name="Layer 1" xmlns="http://www.w3.org/2000/svg" viewBox="0 0 1116.32 159.11">
  <defs>
    <style>
      .cls-1 {
        isolation: isolate;
      }

      .cls-2 {
        fill: #fff;
        stroke-width: 0px;
      }
    </style>
  </defs>
  <g class="cls-1">
    <path class="cls-2" d="m8.73,65.98h38.52v3.51H12.51v26.28h32.94v3.6H12.51v27.18h34.74v3.51H8.73v-64.08Z"/>
    <path class="cls-2" d="m122.13,101.08v28.98h-3.78v-28.62c0-4.8-.87-8.31-2.61-10.53-1.74-2.22-4.5-3.33-8.28-3.33-4.38,0-7.86,1.47-10.44,4.41-2.58,2.94-3.87,6.9-3.87,11.88v26.19h-3.78v-28.62c0-4.8-.87-8.31-2.61-10.53-1.74-2.22-4.53-3.33-8.37-3.33-4.44,0-7.95,1.47-10.53,4.41-2.58,2.94-3.87,6.9-3.87,11.88v26.19h-3.69v-32.58c0-4.68-.24-8.82-.72-12.42h3.6l.63,8.46c1.2-3.06,3.04-5.41,5.53-7.07,2.49-1.65,5.41-2.47,8.78-2.47,7.32,0,12,2.97,14.04,8.91,1.26-2.82,3.22-5.01,5.9-6.57,2.67-1.56,5.74-2.34,9.23-2.34,9.9,0,14.85,5.7,14.85,17.1Z"/>
    <path class="cls-2" d="m167.8,86.9c3.03,1.95,5.38,4.7,7.06,8.24,1.68,3.54,2.52,7.65,2.52,12.33s-.83,8.76-2.48,12.24c-1.65,3.48-4,6.18-7.06,8.1-3.06,1.92-6.57,2.88-10.53,2.88s-7.2-.85-9.9-2.56c-2.7-1.71-4.71-4.21-6.03-7.52v28.89h-3.69v-52.02c0-4.68-.24-8.82-.72-12.42h3.6l.72,9.18c1.26-3.3,3.27-5.83,6.03-7.6,2.76-1.77,6.09-2.66,9.99-2.66s7.45.98,10.48,2.92Zm1.26,34.96c2.79-3.42,4.19-8.22,4.19-14.4s-1.4-11.1-4.19-14.58c-2.79-3.48-6.68-5.22-11.66-5.22s-9.11,1.7-11.83,5.08c-2.73,3.39-4.09,8.23-4.09,14.54s1.36,11.16,4.09,14.58c2.73,3.42,6.64,5.13,11.75,5.13s8.96-1.71,11.75-5.13Z"/>
  </g>
  <g class="cls-1">
    <path class="cls-2" d="m196.65,127.81c-3.06-1.92-5.42-4.65-7.06-8.19-1.65-3.54-2.48-7.65-2.48-12.33s.82-8.78,2.48-12.29c1.65-3.51,4-6.22,7.06-8.15,3.06-1.92,6.57-2.88,10.53-2.88s7.45.96,10.48,2.88c3.03,1.92,5.37,4.63,7.02,8.15,1.65,3.51,2.48,7.6,2.48,12.29s-.83,8.79-2.48,12.33c-1.65,3.54-3.99,6.27-7.02,8.19-3.03,1.92-6.52,2.88-10.48,2.88s-7.47-.96-10.53-2.88Zm22.27-5.94c2.79-3.42,4.19-8.28,4.19-14.58s-1.41-10.92-4.23-14.4c-2.82-3.48-6.72-5.22-11.7-5.22s-8.9,1.73-11.75,5.17c-2.85,3.45-4.27,8.27-4.27,14.45s1.38,11.24,4.14,14.62c2.76,3.39,6.69,5.08,11.79,5.08s9.04-1.71,11.83-5.13Z"/>
    <path class="cls-2" d="m305.1,85.06l-15.93,45h-4.5l-14.4-40.41-14.49,40.41h-4.59l-15.75-45h4.14l13.77,40.59,14.67-40.59h4.68l14.22,40.5,14.22-40.5h3.96Z"/>
  </g>
  <g class="cls-1">
    <path class="cls-2" d="m317.52,106.57v.81c0,6.3,1.49,11.15,4.46,14.54,2.97,3.39,7.21,5.08,12.73,5.08,2.82,0,5.46-.46,7.92-1.4,2.46-.93,4.89-2.41,7.29-4.46l1.8,3.24c-1.92,1.92-4.4,3.45-7.42,4.59-3.03,1.14-6.17,1.71-9.41,1.71-6.66,0-11.92-2.07-15.79-6.21s-5.81-9.84-5.81-17.1c0-4.62.87-8.7,2.61-12.24,1.74-3.54,4.18-6.28,7.33-8.24,3.15-1.95,6.76-2.92,10.84-2.92,5.76,0,10.27,1.89,13.54,5.67,3.27,3.78,4.91,9.06,4.91,15.84v1.08h-35.01Zm5.62-15.08c-2.85,2.73-4.63,6.53-5.35,11.39h30.96c-.36-4.98-1.8-8.8-4.32-11.48-2.52-2.67-5.97-4-10.35-4s-8.09,1.37-10.94,4.09Z"/>
    <path class="cls-2" d="m386.73,84.25l-.27,3.42c-.72-.12-1.92-.18-3.6-.18-3.3,0-6,.77-8.1,2.29-2.1,1.53-3.63,3.48-4.59,5.85-.96,2.37-1.44,4.85-1.44,7.42v27h-3.69v-32.58c0-4.68-.24-8.82-.72-12.42h3.6l.63,8.46c1.2-3.12,3.07-5.49,5.62-7.11,2.55-1.62,5.47-2.43,8.77-2.43,1.68,0,2.94.09,3.78.27Z"/>
    <path class="cls-2" d="m400.14,67.06v5.76h-5.85v-5.76h5.85Zm-4.86,18h3.69v45h-3.69v-45Z"/>
    <path class="cls-2" d="m450.63,101.08v28.98h-3.78v-28.62c0-4.8-.98-8.31-2.93-10.53-1.95-2.22-5.06-3.33-9.31-3.33-4.86,0-8.75,1.47-11.65,4.41-2.91,2.94-4.37,6.9-4.37,11.88v26.19h-3.69v-32.58c0-4.68-.24-8.82-.72-12.42h3.6l.63,8.55c1.26-3.12,3.3-5.5,6.12-7.16,2.82-1.65,6.06-2.47,9.72-2.47,10.92,0,16.38,5.7,16.38,17.1Z"/>
    <path class="cls-2" d="m503.19,85.06v45.63c0,6.42-1.52,11.26-4.54,14.54-3.03,3.27-7.52,4.91-13.46,4.91-6.72,0-12.48-1.68-17.28-5.04l.81-3.6c3,1.8,5.7,3.07,8.1,3.83,2.4.75,5.25,1.12,8.55,1.12,4.62,0,8.13-1.3,10.53-3.92,2.4-2.61,3.6-6.41,3.6-11.38v-12.33c-1.32,3.24-3.36,5.7-6.12,7.38-2.76,1.68-6.09,2.52-9.99,2.52s-7.47-.95-10.53-2.83c-3.06-1.89-5.45-4.53-7.16-7.92-1.71-3.39-2.56-7.27-2.56-11.65s.85-8.26,2.56-11.66c1.71-3.39,4.1-6.01,7.16-7.88,3.06-1.86,6.57-2.79,10.53-2.79s7.12.81,9.85,2.43c2.73,1.62,4.78,3.99,6.17,7.11v-8.46h3.78Zm-8.06,34.88c2.85-3.33,4.27-7.88,4.27-13.63s-1.43-10.38-4.27-13.68c-2.85-3.3-6.77-4.95-11.75-4.95s-9,1.65-11.88,4.95c-2.88,3.3-4.32,7.86-4.32,13.68s1.44,10.38,4.32,13.68c2.88,3.3,6.84,4.95,11.88,4.95s8.89-1.67,11.75-5Z"/>
  </g>
  <g class="cls-1">
    <path class="cls-2" d="m768.39,142.39c2.52.54,4.68.81,6.48.81,3.18,0,5.45-.98,6.79-2.92,1.35-1.95,2.03-5.21,2.03-9.76v-64.53h3.69v64.71c0,5.76-.96,9.88-2.88,12.38-1.92,2.49-5.04,3.74-9.36,3.74-1.8,0-4.05-.24-6.75-.72v-3.69Z"/>
    <path class="cls-2" d="m810.51,127.81c-3.06-1.92-5.42-4.65-7.06-8.19-1.65-3.54-2.48-7.65-2.48-12.33s.82-8.78,2.48-12.29c1.65-3.51,4-6.22,7.06-8.15,3.06-1.92,6.57-2.88,10.53-2.88s7.46.96,10.49,2.88c3.03,1.92,5.37,4.63,7.02,8.15,1.65,3.51,2.48,7.6,2.48,12.29s-.83,8.79-2.48,12.33c-1.65,3.54-3.99,6.27-7.02,8.19-3.03,1.92-6.53,2.88-10.49,2.88s-7.47-.96-10.53-2.88Zm22.28-5.94c2.79-3.42,4.18-8.28,4.18-14.58s-1.41-10.92-4.23-14.4c-2.82-3.48-6.72-5.22-11.7-5.22s-8.9,1.73-11.75,5.17c-2.85,3.45-4.27,8.27-4.27,14.45s1.38,11.24,4.14,14.62c2.76,3.39,6.69,5.08,11.79,5.08s9.04-1.71,11.83-5.13Z"/>
    <path class="cls-2" d="m888.45,85.06v45h-3.6v-8.55c-1.44,2.94-3.53,5.21-6.25,6.79-2.73,1.59-5.8,2.38-9.22,2.38-5.16,0-9.09-1.45-11.79-4.37-2.7-2.91-4.05-7.18-4.05-12.82v-28.44h3.69v28.08c0,4.74.97,8.24,2.92,10.49,1.95,2.25,4.93,3.38,8.96,3.38,4.74,0,8.53-1.49,11.38-4.46,2.85-2.97,4.28-6.92,4.28-11.83v-25.65h3.69Z"/>
    <path class="cls-2" d="m925.98,84.25l-.27,3.42c-.72-.12-1.92-.18-3.6-.18-3.3,0-6,.77-8.1,2.29-2.1,1.53-3.63,3.48-4.59,5.85-.96,2.37-1.44,4.85-1.44,7.42v27h-3.69v-32.58c0-4.68-.24-8.82-.72-12.42h3.6l.63,8.46c1.2-3.12,3.07-5.49,5.62-7.11,2.55-1.62,5.47-2.43,8.77-2.43,1.68,0,2.94.09,3.78.27Z"/>
    <path class="cls-2" d="m970.26,101.08v28.98h-3.78v-28.62c0-4.8-.98-8.31-2.93-10.53-1.95-2.22-5.05-3.33-9.31-3.33-4.86,0-8.75,1.47-11.66,4.41-2.91,2.94-4.37,6.9-4.37,11.88v26.19h-3.69v-32.58c0-4.68-.24-8.82-.72-12.42h3.6l.63,8.55c1.26-3.12,3.3-5.5,6.12-7.16,2.82-1.65,6.06-2.47,9.72-2.47,10.92,0,16.38,5.7,16.38,17.1Z"/>
  </g>
  <g class="cls-1">
    <path class="cls-2" d="m987,106.57v.81c0,6.3,1.49,11.15,4.46,14.54s7.21,5.08,12.73,5.08c2.82,0,5.46-.46,7.92-1.4,2.46-.93,4.89-2.41,7.29-4.46l1.8,3.24c-1.92,1.92-4.4,3.45-7.42,4.59-3.03,1.14-6.17,1.71-9.41,1.71-6.66,0-11.92-2.07-15.79-6.21s-5.81-9.84-5.81-17.1c0-4.62.87-8.7,2.61-12.24,1.74-3.54,4.18-6.28,7.33-8.24,3.15-1.95,6.76-2.92,10.84-2.92,5.76,0,10.27,1.89,13.54,5.67,3.27,3.78,4.91,9.06,4.91,15.84v1.08h-35.01Zm5.62-15.08c-2.85,2.73-4.63,6.53-5.36,11.39h30.96c-.36-4.98-1.8-8.8-4.32-11.48-2.52-2.67-5.97-4-10.35-4s-8.09,1.37-10.93,4.09Z"/>
  </g>
  <g class="cls-1">
    <path class="cls-2" d="m1070.96,85.06l-21.24,50.13c-2.04,4.8-4.56,8.31-7.56,10.53-3,2.22-6.75,3.81-11.25,4.77l-.72-3.06c4.32-1.02,7.62-2.37,9.9-4.05,2.28-1.68,4.17-4.35,5.67-8.01l1.89-4.77-19.26-45.54h4.05l17.28,41.58,17.37-41.58h3.87Z"/>
  </g>
  <g class="cls-1">
    <path class="cls-2" d="m1077.27,124.57l1.71-3.15c2.4,2.04,4.75,3.46,7.06,4.27,2.31.81,5.05,1.21,8.24,1.21,4.02,0,7.08-.7,9.18-2.11,2.1-1.41,3.15-3.47,3.15-6.17,0-2.16-.69-3.88-2.07-5.18-1.38-1.29-3.6-2.32-6.66-3.1l-7.65-1.8c-3.42-.78-6.18-2.25-8.28-4.41-2.1-2.16-3.15-4.62-3.15-7.38,0-3.84,1.45-6.93,4.37-9.27,2.91-2.34,6.82-3.51,11.75-3.51,3.18,0,6.1.53,8.77,1.58,2.67,1.05,4.82,2.54,6.44,4.46l-1.8,3.24c-2.04-1.86-4.14-3.25-6.3-4.19-2.16-.93-4.53-1.39-7.11-1.39-3.78,0-6.71.75-8.78,2.25-2.07,1.5-3.1,3.6-3.1,6.3,0,2.28.66,4.11,1.98,5.49,1.32,1.38,3.36,2.4,6.12,3.06l7.74,1.89c3.96.9,6.93,2.34,8.91,4.32,1.98,1.98,2.97,4.44,2.97,7.38,0,3.66-1.52,6.63-4.54,8.91-3.03,2.28-7.1,3.42-12.2,3.42-7.08,0-12.66-2.04-16.74-6.12Z"/>
  </g>
  <path id="Path_11" data-name="Path 11" class="cls-2" d="m742.79,0c-11.05,5.8-30.8,17.9-38.73,23.01,0,0-9.94,5.13-13.93,18.27l-8.37,21.99s10.28-13.56,25.39-21.56c0,0,19.72-11.68,32.15-18.7l3.49-23.01Z"/>
  <path id="Path_12" data-name="Path 12" class="cls-2" d="m732.28,69.01c-13.45,9.29-33.8,23.22-52.09,35.27,0,0-14.5,10.07-24.05,9.88,0,0-9.08.22-14.07-5.3l4.37,9.24s6,12.17,15.67,12.62c0,0,8.61,1.41,30.85-12.36,0,0,19.35-13.05,35.71-25.64l3.61-23.71h0Z"/>
  <path id="Path_13" data-name="Path 13" class="cls-2" d="m632.97,92.24s-6.27-11.76-21.19-7.8c0,0-30.12,11-51.34,33.38,0,0-5.22,4.93-11.79,11.46l-4.54,29.83c7.66-8.38,18.41-19.86,23.98-24.58,0,0,29.36-26.06,44.03-31.21,0,0,16.59-7.84,29.96,5.53,0,0-4.7-9.62-9.1-16.61"/>
  <path id="Path_14" data-name="Path 14" class="cls-2" d="m618.67,64.98s-7-12.43-26.13-6.64c0,0-14.6,4.79-36.83,24.64l-4.25,27.9c1.65-1.55,2.65-2.47,2.65-2.47,0,0,25.12-24.34,43.72-32.35,0,0,18.54-9.68,32.66,10.33,0,0-7.41-14.42-11.81-21.4"/>
  <path id="Path_15" data-name="Path 15" class="cls-2" d="m605.16,41.38s-7.24-12.25-23.68-8.59c0,0-6.81,1.14-19.55,9.32l-3.62,23.78c8.5-6.46,18.89-13.33,28.22-16.58,0,0,14.87-6.26,27.95,8.57,0,0-4.26-8.45-9.32-16.49"/>
  <path id="Path_16" data-name="Path 16" class="cls-2" d="m737.65,33.77c-12.09,7.9-29.88,19.52-39.2,25.54,0,0-10.4,4.77-15.27,20.07l-6.85,19.84c6.92-6.81,14.31-13.12,22.12-18.88,17.43-12.69,26.88-18.62,35.85-24.57l3.35-22.01h0Z"/>
</svg>